<?xml version="1.0" standalone="no"?><!DOCTYPE svg PUBLIC "-//W3C//DTD SVG 1.1//EN" "http://www.w3.org/Graphics/SVG/1.1/DTD/svg11.dtd"><svg t="1521044774169" class="icon" style="" viewBox="0 0 1024 1024" version="1.1" xmlns="http://www.w3.org/2000/svg" p-id="2499" xmlns:xlink="http://www.w3.org/1999/xlink" width="200" height="200"><defs><style type="text/css"></style></defs><path d="M996.352 354.304c-88.064-267.776-376.832-412.672-644.096-325.12-267.776 88.064-413.184 376.32-325.12 644.096 88.064 267.776 376.832 412.672 644.096 325.12 109.568-36.352 197.632-107.008 259.584-195.072 2.56-4.608 3.072-10.24 1.024-16.384-4.096-12.288-16.384-18.432-28.672-14.336-6.656 2.048-10.752 6.144-13.312 11.776-55.296 77.312-134.144 139.264-231.424 171.008-155.136 51.2-318.464 15.36-436.224-80.896l23.04-155.648-90.624-84.992h-87.552c-21.504-82.432-19.968-165.888 2.048-243.2l131.584-22.016 41.472-103.936 82.944-41.472 19.456-137.728c8.192-3.072 16.384-6.144 24.576-8.704 93.696-30.72 189.952-30.208 277.504-3.584l-17.92 106.496-157.696 137.728-150.528 258.048 201.728 179.712 186.88-70.144-19.968-138.752 132.096-32.768 81.92 81.92 70.144-29.184c-1.024 9.216-2.048 17.92-4.096 27.136v0.512c0 2.56 0 4.608 0.512 6.656 4.096 12.288 16.896 17.92 28.672 14.336 9.216-3.072 15.36-11.264 15.36-20.992 12.8-77.824 8.704-159.744-17.408-239.616z m-793.6 378.368l-16.384 109.568c-46.08-46.592-82.944-103.424-107.008-168.448h58.368l65.024 58.88z m85.504-535.552l-77.824 38.912-38.912 96.768-88.064 14.848c39.936-101.888 115.712-189.44 217.6-241.664l-12.8 91.136zM834.56 469.504l-188.928 47.104 20.48 142.336-134.144 50.176-159.232-141.824 130.56-223.744 163.328-142.848 18.944-113.664c122.368 49.152 223.232 149.504 267.264 284.672 16.384 49.664 24.576 100.352 24.064 150.016l-63.488 26.624-78.848-78.848z" p-id="2500" fill="#ffffff"></path></svg>