<?xml version="1.0" standalone="no"?><!DOCTYPE svg PUBLIC "-//W3C//DTD SVG 1.1//EN" "http://www.w3.org/Graphics/SVG/1.1/DTD/svg11.dtd"><svg t="1535089641317" class="icon" style="" viewBox="0 0 1024 1024" version="1.1" xmlns="http://www.w3.org/2000/svg" p-id="1079" xmlns:xlink="http://www.w3.org/1999/xlink" width="200" height="200"><defs><style type="text/css"></style></defs><path d="M1015.254 493.724l-0.007-0.007-153.378-153.378c-11.66-11.66-30.741-11.66-42.401 0l-0.007 0.007c-11.661 11.661-11.661 30.742 0 42.403l101.124 101.124H536.728V101.606L639.661 204.54c11.66 11.66 30.741 11.66 42.401 0l0.007-0.007c11.661-11.661 11.661-30.742 0-42.403L528.684 8.745c-11.66-11.66-30.741-11.66-42.401 0l-0.007 0.007-0.001 0.001L332.898 162.13c-11.661 11.661-11.661 30.742 0 42.403l0.007 0.007c11.66 11.66 30.741 11.66 42.401 0l99.316-99.316v378.649H103.414l101.124-101.124c11.661-11.661 11.661-30.742 0-42.403l-0.007-0.007c-11.66-11.66-30.741-11.66-42.401 0L8.752 493.717l-0.007 0.007c-11.661 11.661-11.661 30.742 0 42.403l0.007 0.007L162.13 689.512c11.66 11.66 30.741 11.66 42.401 0l0.007-0.007c11.661-11.661 11.661-30.742 0-42.403L103.414 545.978h371.208v372.798l-99.316-99.316c-11.66-11.66-30.741-11.66-42.401 0l-0.007 0.007c-11.661 11.661-11.661 30.742 0 42.403l153.385 153.385c11.66 11.66 30.741 11.66 42.401 0L682.069 861.87c11.661-11.661 11.661-30.742 0-42.403l-0.007-0.007c-11.66-11.66-30.741-11.66-42.401 0L536.728 922.394V545.978h383.858L819.462 647.102c-11.661 11.661-11.661 30.742 0 42.403l0.007 0.007c11.66 11.66 30.741 11.66 42.401 0l153.378-153.378 0.007-0.007c11.66-11.661 11.66-30.742-0.001-42.403z" p-id="1080" fill="#bfbfbf"></path></svg>